<?xml version="1.0" encoding="UTF-8" standalone="no"?>
<!-- Created with Inkscape (http://www.inkscape.org/) -->
<svg
   xmlns:dc="http://purl.org/dc/elements/1.1/"
   xmlns:cc="http://creativecommons.org/ns#"
   xmlns:rdf="http://www.w3.org/1999/02/22-rdf-syntax-ns#"
   xmlns:svg="http://www.w3.org/2000/svg"
   xmlns="http://www.w3.org/2000/svg"
   xmlns:xlink="http://www.w3.org/1999/xlink"
   xmlns:sodipodi="http://sodipodi.sourceforge.net/DTD/sodipodi-0.dtd"
   xmlns:inkscape="http://www.inkscape.org/namespaces/inkscape"
   width="200"
   height="200"
   id="svg3261"
   sodipodi:version="0.32"
   inkscape:version="0.46"
   version="1.0"
   sodipodi:docname="lightweight.svg"
   inkscape:output_extension="org.inkscape.output.svg.inkscape"
   inkscape:export-filename="C:\Users\Michael\Desktop\lightweight.png"
   inkscape:export-xdpi="90"
   inkscape:export-ydpi="90">
  <defs
     id="defs3263">
    <linearGradient
       id="linearGradient3795">
      <stop
         style="stop-color:#ffc300;stop-opacity:1;"
         offset="0"
         id="stop3797" />
      <stop
         style="stop-color:#ef7409;stop-opacity:1;"
         offset="1"
         id="stop3799" />
    </linearGradient>
    <inkscape:perspective
       sodipodi:type="inkscape:persp3d"
       inkscape:vp_x="0 : 526.18109 : 1"
       inkscape:vp_y="0 : 1000 : 0"
       inkscape:vp_z="744.09448 : 526.18109 : 1"
       inkscape:persp3d-origin="372.04724 : 350.78739 : 1"
       id="perspective3269" />
    <inkscape:perspective
       id="perspective3278"
       inkscape:persp3d-origin="372.04724 : 350.78739 : 1"
       inkscape:vp_z="744.09448 : 526.18109 : 1"
       inkscape:vp_y="0 : 1000 : 0"
       inkscape:vp_x="0 : 526.18109 : 1"
       sodipodi:type="inkscape:persp3d" />
    <linearGradient
       inkscape:collect="always"
       xlink:href="#linearGradient3795"
       id="linearGradient3801"
       x1="13.198376"
       y1="110.60198"
       x2="189.98114"
       y2="110.60198"
       gradientUnits="userSpaceOnUse"
       gradientTransform="translate(-1.6968924,-38.01053)" />
  </defs>
  <sodipodi:namedview
     id="base"
     pagecolor="#ffffff"
     bordercolor="#666666"
     borderopacity="1.0"
     gridtolerance="10000"
     guidetolerance="10"
     objecttolerance="10"
     inkscape:pageopacity="0.0"
     inkscape:pageshadow="2"
     inkscape:zoom="1"
     inkscape:cx="-132.18011"
     inkscape:cy="66.988868"
     inkscape:document-units="px"
     inkscape:current-layer="layer1"
     showgrid="false"
     inkscape:window-width="1680"
     inkscape:window-height="988"
     inkscape:window-x="-8"
     inkscape:window-y="-8" />
  <metadata
     id="metadata3266">
    <rdf:RDF>
      <cc:Work
         rdf:about="">
        <dc:format>image/svg+xml</dc:format>
        <dc:type
           rdf:resource="http://purl.org/dc/dcmitype/StillImage" />
      </cc:Work>
    </rdf:RDF>
  </metadata>
  <g
     inkscape:label="Layer 1"
     inkscape:groupmode="layer"
     id="layer1">
    <rect
       style="fill:#93d054;fill-opacity:1;stroke:none;stroke-width:1.50000000000000000;stroke-miterlimit:4;stroke-dasharray:1.50000000000000000, 4.50000000000000000;stroke-dashoffset:0;stroke-opacity:1"
       id="rect3809"
       width="200"
       height="200"
       x="0"
       y="-8.0907503e-15"
       rx="0"
       ry="0" />
    <path
       style="fill:#afdc80;fill-opacity:1"
       d="M 9.898971,91.62284 C 13.947561,99.55593 18.238441,108.13965 24.961471,113.74777 C 23.109361,116.54967 28.633141,119.34339 30.319491,121.86642 C 39.492311,130.32166 47.669201,140.34268 57.836471,147.49778 C 60.004201,148.35571 64.838521,147.10965 60.055221,149.18527 C 68.555651,156.6757 78.948871,162.47937 89.867721,165.09152 C 93.652571,164.86305 97.09821,162.90651 100.55522,161.52902 C 98.35872,162.95795 91.909901,166.33003 96.39897,168.71652 C 104.27186,172.73845 114.34475,173.73166 122.21148,170.21652 C 119.56285,174.51409 126.80807,174.99203 129.74273,175.37277 C 142.18508,177.19132 154.63165,173.89232 166.23017,170.46826 C 173.8819,171.26677 182.47764,173.65766 189.86773,171.24777 C 192.18408,167.67322 185.43983,165.93953 182.89898,164.21652 C 175.23029,161.47579 165.54625,166.8418 159.25105,160.09088 C 149.58621,151.83738 137.52347,146.9378 125.55523,142.81028 C 124.3257,144.35038 123.82152,146.95039 123.68023,143.34153 C 122.39319,135.23576 113.53619,132.84697 106.55462,132.30528 C 101.18575,131.38405 95.968237,130.23984 90.680221,128.99777 C 92.368151,133.84606 91.638511,132.83347 89.180221,129.84152 C 83.340741,126.49005 76.007631,125.69507 69.836471,122.71652 C 64.607141,121.28254 59.902421,117.3371 54.273971,118.06027 C 55.693811,121.23979 52.062941,115.08876 49.773971,114.84152 C 33.543191,111.4843 22.494001,97.93442 10.629101,87.603746 C 6.210371,83.606637 9.842511,89.552575 9.898971,91.62284 z M 169.43023,166.87277 C 169.47491,167.16237 168.96633,166.67956 169.43023,166.87277 z M 170.71148,168.43527 C 170.36494,168.48125 170.79553,168.25934 170.71148,168.43527 z"
       id="path3834" />
    <path
       style="fill:#c8e7a8;fill-opacity:1"
       d="M 9.898976,71.796178 C 13.947566,79.729272 18.238446,88.313022 24.961476,93.921182 C 23.109366,96.72308 28.633146,99.5168 30.319496,102.03983 C 39.492316,110.49502 47.669206,120.51601 57.836476,127.67111 C 60.004206,128.52904 64.838526,127.28298 60.055226,129.3586 C 68.555656,136.84903 78.948876,142.6527 89.867726,145.26485 C 93.652576,145.03638 97.09821,143.07984 100.55522,141.70235 C 98.35872,143.13128 91.909906,146.50336 96.39898,148.88985 C 104.27186,152.91178 114.34475,153.90499 122.21148,150.38985 C 119.56285,154.68742 126.80807,155.16536 129.74273,155.5461 C 142.18508,157.36465 154.63165,154.06565 166.23017,150.64159 C 173.8819,151.4401 182.47764,153.83099 189.86773,151.4211 C 192.18408,147.84655 185.43983,146.11286 182.89898,144.38985 C 175.23029,141.64912 165.54625,147.01513 159.25105,140.26421 C 149.58621,132.01071 137.52347,127.11113 125.55523,122.98361 C 124.3257,124.52371 123.82152,127.12372 123.68023,123.51486 C 122.39319,115.40909 113.53619,113.02031 106.55462,112.47862 C 101.18575,111.5574 95.968245,110.4132 90.680226,109.17114 C 92.368156,114.01939 91.638516,113.00681 89.180226,110.01488 C 83.340746,106.66344 76.007636,105.86847 69.836476,102.88993 C 64.607146,101.45595 59.902426,97.51051 54.273976,98.23368 C 55.693816,101.4132 52.062946,95.26217 49.773976,95.01493 C 33.543196,91.657702 22.494006,78.10776 10.629106,67.777084 C 6.210376,63.779975 9.842516,69.725913 9.898976,71.796178 z M 169.43023,147.0461 C 169.47491,147.3357 168.96633,146.85289 169.43023,147.0461 z M 170.71148,148.6086 C 170.36494,148.65458 170.79553,148.43267 170.71148,148.6086 z"
       id="path3828" />
    <path
       style="fill:#e8f5da;fill-opacity:1"
       d="M 9.898971,51.969517 C 13.947561,59.902611 18.238441,68.486361 24.961471,74.094521 C 23.109361,76.896421 28.633141,79.690141 30.319491,82.213171 C 39.492311,90.668411 47.669201,100.68943 57.836471,107.84451 C 60.004201,108.70243 64.838521,107.45639 60.055221,109.53199 C 68.555651,117.02238 78.948871,122.82605 89.867721,125.4382 C 93.652571,125.20973 97.09821,123.25319 100.55522,121.8757 C 98.35872,123.30463 91.909901,126.67671 96.39897,129.0632 C 104.27186,133.08513 114.34475,134.07834 122.21148,130.5632 C 119.56285,134.86077 126.80807,135.33871 129.74273,135.71945 C 142.18508,137.538 154.63165,134.239 166.23017,130.81494 C 173.8819,131.61345 182.47764,134.00434 189.86773,131.59445 C 192.18408,128.0199 185.43983,126.28621 182.89898,124.5632 C 175.23029,121.82247 165.54625,127.18848 159.25105,120.43756 C 149.58621,112.18407 137.52347,107.28454 125.55523,103.15703 C 124.3257,104.69713 123.82152,107.29713 123.68023,103.68828 C 122.39319,95.58251 113.53619,93.193721 106.55462,92.652031 C 101.18575,91.730801 95.968241,90.586591 90.680221,89.344521 C 92.368151,94.19281 91.638511,93.180221 89.180221,90.188271 C 83.340741,86.836801 76.007631,86.041821 69.836471,83.063271 C 64.607141,81.629291 59.902421,77.683851 54.273971,78.407021 C 55.693811,81.586541 52.062941,75.435511 49.773971,75.188271 C 33.543191,71.831041 22.494001,58.281099 10.629101,47.950423 C 6.210371,43.953314 9.842511,49.899252 9.898971,51.969517 z M 169.43023,127.21945 C 169.47491,127.50905 168.96633,127.02624 169.43023,127.21945 z M 170.71148,128.78195 C 170.36494,128.82793 170.79553,128.60602 170.71148,128.78195 z"
       id="path3826" />
    <path
       style="fill:#ffffff;fill-opacity:1"
       d="M 9.898973,32.14286 C 13.947567,40.075953 18.238445,48.659702 24.961473,54.26786 C 23.109363,57.069763 28.633146,59.863483 30.319493,62.38651 C 39.492314,70.84175 47.669203,80.86276 57.836473,88.01786 C 60.004204,88.875799 64.838532,87.62973 60.055223,89.705359 C 68.555654,97.19579 78.948882,102.99943 89.867723,105.61156 C 93.652582,105.38309 97.09822,103.42657 100.55523,102.04909 C 98.35873,103.47801 91.909909,106.85006 96.39898,109.23654 C 104.27186,113.25847 114.34475,114.25168 122.21148,110.73654 C 119.56285,115.03411 126.80807,115.51205 129.74273,115.89279 C 142.18508,117.71134 154.63165,114.41234 166.23017,110.98828 C 173.8819,111.78679 182.47764,114.17768 189.86773,111.76779 C 192.18408,108.19324 185.43983,106.45956 182.89898,104.73657 C 175.23029,101.99586 165.54625,107.36183 159.25105,100.61097 C 149.58621,92.357469 137.52347,87.45788 125.55523,83.33036 C 124.3257,84.87046 123.82152,87.47047 123.68023,83.86161 C 122.39319,75.75584 113.53619,73.36706 106.55462,72.82537 C 101.18575,71.90414 95.968243,70.75993 90.680223,69.51786 C 92.368159,74.36615 91.638513,73.35356 89.180223,70.36161 C 83.340747,67.01014 76.007642,66.21516 69.836473,63.23661 C 64.607146,61.802632 59.902427,57.857194 54.273973,58.58036 C 55.693813,61.759889 52.062946,55.608854 49.773973,55.36161 C 33.543199,52.004387 22.494011,38.454442 10.629105,28.123766 C 6.210378,24.126657 9.842514,30.072595 9.898973,32.14286 z M 169.43023,107.3928 C 169.47491,107.6824 168.96633,107.19959 169.43023,107.3928 z M 170.71148,108.95529 C 170.36494,109.00127 170.79553,108.77936 170.71148,108.95529 z"
       id="path3803" />
    <path
       style="fill:url(#linearGradient3801);fill-opacity:1"
       d="M 188.26701,110.22306 C 187.30736,110.67633 179.02018,110.60697 175.15569,110.11334 C 155.08826,107.54998 137.23268,103.27641 116.28578,96.02335 C 102.33517,91.192809 94.348744,87.95007 76.074779,79.6965 C 67.544759,75.84383 60.476531,72.73375 60.367608,72.7852 C 59.715993,73.09297 85.11133,84.72987 98.95727,90.468119 C 116.91365,97.90986 145.78911,106.7046 159.70242,108.96962 L 162.57432,109.43715 L 159.89182,110.39113 C 155.96349,111.78819 147.8136,113.55005 143.5246,113.92945 C 136.81184,114.52323 127.07584,113.84834 124.01816,112.57727 C 123.00227,112.15497 123.01845,112.12112 124.5908,111.37844 C 128.00092,109.76774 131.6243,106.13884 131.42207,104.53677 C 131.38554,104.24748 129.17367,105.10885 125.34655,106.9027 C 118.50599,110.10905 115.83442,110.76862 109.91439,110.71267 C 107.1834,110.68686 105.07847,110.2527 101.42441,108.96152 C 98.75214,108.01726 96.60606,107.13224 96.65531,106.99479 C 96.70457,106.85735 98.49784,105.57456 100.64038,104.14413 C 105.57014,100.85286 107.80057,98.85719 108.61527,97.00862 L 109.25892,95.54821 L 102.24222,98.84136 C 98.38302,100.65257 93.940221,102.49743 92.369316,102.94105 C 89.613836,103.7192 89.374201,103.69573 85.572648,102.27542 C 78.055183,99.46683 69.784453,95.09303 65.782839,91.809999 L 63.442814,89.890179 L 66.472772,88.218039 C 68.139247,87.29836 69.5614,86.38042 69.633112,86.17818 C 69.704825,85.97592 68.110732,85.89405 66.090683,85.99624 C 58.402061,86.38513 58.55909,86.40393 56.577231,84.85784 C 53.013096,82.07739 27.019186,56.64938 26.399218,55.336806 C 26.372091,55.279377 26.841415,54.867453 27.442152,54.421425 L 28.534407,53.610463 L 26.950602,52.785799 C 23.161416,50.812838 19.02279,45.457933 14.325124,36.449901 L 11.501483,31.035414 L 15.672023,35.33171 C 27.100117,47.104394 38.691702,54.915231 47.335505,56.667729 C 49.680827,57.143234 50.030088,57.37794 52.215117,59.946866 C 56.142456,64.56421 60.549694,67.88474 61.272842,66.77118 C 61.651885,66.1875 60.218527,63.52563 58.698629,61.99062 C 57.932831,61.217209 57.331385,60.514366 57.362076,60.428727 C 57.392767,60.343089 59.838822,61.283909 62.797746,62.51943 C 69.129402,65.16327 85.158418,70.854 86.453143,70.91774 C 87.106737,70.94992 88.037632,71.89692 89.86185,74.38543 C 94.195968,80.29782 95.752903,80.42914 94.135921,74.74594 L 93.369167,72.05105 L 97.1871,72.91556 C 99.28697,73.39103 104.15883,74.316 108.01346,74.97105 C 113.45181,75.89525 115.48373,76.46185 117.08335,77.50029 C 120.02594,79.41056 121.46604,82.10202 121.93498,86.56777 C 122.32229,90.256099 122.88842,91.938079 123.62537,91.589989 C 123.88196,91.468789 124.52775,90.079229 125.06047,88.502079 C 125.59319,86.92494 126.10417,85.59906 126.19599,85.55568 C 126.6282,85.35153 142.54176,92.016389 145.9292,93.820259 C 148.03528,94.9418 151.58667,97.27712 153.82115,99.00989 C 156.05566,100.74265 158.73952,102.72081 159.78533,103.40582 L 161.68679,104.65127 L 159.21352,104.44014 C 148.17659,103.49801 136.58148,100.76684 120.48705,95.31829 C 114.32734,93.232989 108.58916,91.425889 107.73556,91.302489 C 105.58456,90.991569 121.90761,96.6301 130.77515,99.26115 C 150.17822,105.01812 160.06407,106.43238 176.64475,105.82328 C 180.70326,105.67419 180.85675,105.71296 184.70833,107.86035 C 186.86778,109.06433 188.46921,110.12756 188.26701,110.22306 z"
       id="path3284"
       sodipodi:nodetypes="cssssscccssssssssscccsscccssssccccccsssssssscccsssssssscccsssssc" />
    <rect
       style="fill:#93d054;fill-opacity:1;stroke:none;stroke-width:1.5;stroke-miterlimit:4;stroke-dasharray:1.5, 4.5;stroke-dashoffset:0;stroke-opacity:1"
       id="rect3864"
       width="131"
       height="200"
       x="-189"
       y="-3" />
    <rect
       style="fill:#ffffff;fill-opacity:0.78306879;stroke:none;stroke-width:1.5;stroke-miterlimit:4;stroke-dasharray:1.5, 4.5;stroke-dashoffset:0;stroke-opacity:1"
       id="rect3866"
       width="137"
       height="42"
       x="-257"
       y="22" />
    <rect
       style="fill:#ffffff;fill-opacity:0.49206351;stroke:none;stroke-width:1.5;stroke-miterlimit:4;stroke-dasharray:1.5, 4.5;stroke-dashoffset:0;stroke-opacity:1"
       id="rect3868"
       width="139"
       height="33"
       x="-256"
       y="87" />
    <rect
       style="fill:#ffffff;fill-opacity:0.25396824;stroke:none;stroke-width:1.5;stroke-miterlimit:4;stroke-dasharray:1.5, 4.5;stroke-dashoffset:0;stroke-opacity:1"
       id="rect3870"
       width="147"
       height="32"
       x="-259"
       y="138" />
  </g>
</svg>
